<svg width="153" height="153" xmlns="http://www.w3.org/2000/svg" xmlns:xlink="http://www.w3.org/1999/xlink" overflow="hidden"><defs><clipPath id="clip0"><rect x="94" y="94" width="153" height="153"/></clipPath></defs><g clip-path="url(#clip0)" transform="translate(-94 -94)"><path d="M246.909 170.5C246.909 212.752 212.703 247 170.5 247 128.302 247 94.0912 212.752 94.0912 170.5 94.0912 128.25 128.302 94 170.5 94 212.703 94 246.909 128.25 246.909 170.5Z" fill="#2F65B0"/><path d="M170.5 98.4056C130.793 98.4056 98.4909 130.745 98.4909 170.5 98.4909 210.258 130.793 242.595 170.5 242.595 210.209 242.595 242.509 210.258 242.509 170.5 242.509 130.745 210.209 98.4056 170.5 98.4056ZM170.5 238.165C133.916 238.165 104.139 209.057 102.969 172.713L129.639 172.713 130.222 168.284 102.969 168.284C104.139 131.942 133.916 102.831 170.5 102.831 207.086 102.831 236.861 131.942 238.029 168.284L213.823 168.284C210.619 168.284 207.799 170.422 206.931 173.505L199.04 201.525C198.609 203.06 197.664 204.269 196.459 204.822 194.236 205.842 191.784 204.365 190.984 201.525L165.993 112.761C165.547 111.177 163.895 110.251 162.308 110.698 161.312 110.983 160.529 111.763 160.247 112.761L148.766 153.547 148.392 154.867 146.666 160.999 146.458 161.744 146.087 163.06C145.217 166.154 142.4 168.284 139.195 168.284L137.727 168.284 136.711 168.284C136.69 168.514 136.674 168.744 136.674 168.984 136.674 169.23 136.69 169.481 136.715 169.72 136.717 169.784 136.724 169.848 136.733 169.905 136.761 170.142 136.79 170.372 136.838 170.598 136.85 170.658 136.863 170.71 136.877 170.769 136.913 170.931 136.956 171.095 137.002 171.255 137.03 171.35 137.061 171.455 137.095 171.553 137.134 171.675 137.182 171.804 137.227 171.921 137.298 172.098 137.371 172.267 137.451 172.444 137.485 172.513 137.519 172.587 137.555 172.661 137.565 172.677 137.576 172.696 137.585 172.713L142.347 172.713C145.573 172.713 148.401 170.555 149.253 167.44L150.271 163.721 150.463 163.021 151.947 157.601 152.311 156.272 158.452 133.823C158.951 132.006 160.069 130.581 161.488 129.949 164.066 128.8 166.883 130.533 167.783 133.823L192.137 222.793C192.574 224.386 194.214 225.32 195.804 224.882 196.819 224.608 197.612 223.81 197.887 222.793L210.152 177.992C211.004 174.884 213.834 172.713 217.055 172.713L238.029 172.713C236.861 209.057 207.086 238.165 170.5 238.165Z" fill="#FFFFFF"/><path d="M169.074 158.422C168.872 158.826 168.628 159.211 168.354 159.569 165.945 162.711 161.451 163.299 158.313 160.889L152.412 156.354 152.311 156.272 151.947 157.601 150.463 163.021C150.496 163.051 150.533 163.078 150.565 163.11L150.565 163.11C150.565 163.11 150.567 163.112 150.569 163.115 150.756 163.299 150.938 163.491 151.109 163.698L151.109 163.698C151.28 163.897 151.444 164.108 151.594 164.33L151.594 164.33C151.743 164.549 151.877 164.766 152.004 164.989 152.009 165 152.016 165.007 152.02 165.016 152.141 165.23 152.246 165.449 152.344 165.671 152.353 165.698 152.369 165.721 152.378 165.746 152.469 165.953 152.544 166.165 152.617 166.377 152.63 166.427 152.649 166.466 152.665 166.51 152.724 166.706 152.772 166.906 152.822 167.107 152.836 167.176 152.858 167.242 152.872 167.312 152.91 167.494 152.934 167.686 152.958 167.873 152.972 167.96 152.991 168.044 153.002 168.138 153.023 168.339 153.027 168.541 153.032 168.749 153.034 168.828 153.043 168.902 153.043 168.984 153.043 172.938 150.239 176.241 146.508 177.008 146.417 177.027 146.324 177.038 146.23 177.049 145.784 177.126 145.326 177.173 144.859 177.173 144.609 177.173 144.358 177.159 144.115 177.132 144.051 177.132 143.99 177.126 143.926 177.118 143.698 177.093 143.477 177.057 143.256 177.016 143.236 177.014 143.219 177.008 143.2 177.008 142.969 176.959 142.744 176.893 142.525 176.83 142.452 176.808 142.386 176.789 142.318 176.767 142.136 176.701 141.958 176.638 141.785 176.564 141.735 176.548 141.69 176.534 141.644 176.515 141.448 176.43 141.254 176.334 141.065 176.238 140.985 176.197 140.908 176.145 140.831 176.104 140.701 176.032 140.578 175.958 140.453 175.876 140.35 175.808 140.247 175.745 140.147 175.676 140.02 175.585 139.895 175.49 139.77 175.394 139.681 175.317 139.592 175.237 139.505 175.166 139.425 175.098 139.35 175.032 139.275 174.955 139.118 174.81 138.965 174.659 138.824 174.495 138.77 174.44 138.71 174.382 138.658 174.314 138.567 174.212 138.483 174.108 138.396 173.993 138.351 173.935 138.31 173.881 138.267 173.82 138.098 173.587 137.941 173.346 137.797 173.105 137.783 173.085 137.77 173.058 137.759 173.039 137.754 173.036 137.754 173.036 137.752 173.036 137.694 172.924 137.64 172.823 137.585 172.713 137.576 172.696 137.565 172.677 137.555 172.661 137.519 172.587 137.485 172.513 137.451 172.444 137.371 172.267 137.298 172.098 137.227 171.921 137.182 171.804 137.134 171.675 137.095 171.553 137.061 171.455 137.03 171.35 137.002 171.255 136.956 171.095 136.913 170.931 136.877 170.769 136.863 170.71 136.85 170.658 136.838 170.598 136.79 170.372 136.761 170.142 136.733 169.905 136.724 169.848 136.717 169.784 136.715 169.72 136.69 169.481 136.674 169.23 136.674 168.984 136.674 168.744 136.69 168.514 136.711 168.284 136.715 168.238 136.715 168.19 136.717 168.147 136.717 168.145 136.717 168.145 136.717 168.145 136.72 168.117 136.726 168.09 136.731 168.06 136.756 167.82 136.79 167.588 136.838 167.358 136.856 167.26 136.886 167.166 136.904 167.075 136.947 166.911 136.982 166.751 137.03 166.594 137.061 166.487 137.102 166.389 137.136 166.281 137.189 166.142 137.232 165.999 137.291 165.86 137.337 165.752 137.389 165.652 137.435 165.549 137.494 165.417 137.555 165.288 137.622 165.164 137.674 165.06 137.733 164.962 137.792 164.859 137.863 164.738 137.936 164.617 138.009 164.503 138.075 164.403 138.143 164.309 138.212 164.213 138.291 164.102 138.373 163.99 138.458 163.883 138.533 163.79 138.608 163.701 138.685 163.614 138.774 163.511 138.867 163.409 138.96 163.309 139.043 163.224 139.125 163.144 139.209 163.06 139.309 162.966 139.41 162.873 139.516 162.784 139.605 162.706 139.692 162.631 139.783 162.553 139.895 162.474 140.004 162.392 140.118 162.309 140.211 162.241 140.307 162.175 140.405 162.114 140.521 162.036 140.644 161.961 140.762 161.89 140.865 161.835 140.963 161.778 141.065 161.722 141.193 161.657 141.323 161.596 141.452 161.539 141.558 161.489 141.657 161.441 141.762 161.398 141.901 161.341 142.04 161.292 142.181 161.245 142.286 161.208 142.388 161.169 142.495 161.135 142.646 161.092 142.801 161.055 142.953 161.019 143.056 160.994 143.154 160.966 143.256 160.946 143.432 160.909 143.607 160.889 143.785 160.862 143.871 160.853 143.958 160.834 144.049 160.827 144.315 160.798 144.586 160.787 144.859 160.787 145.119 160.787 145.37 160.798 145.623 160.823 145.864 160.846 146.098 160.882 146.331 160.923 146.34 160.925 146.345 160.925 146.354 160.925L146.354 160.928C146.461 160.946 146.561 160.973 146.666 160.999L148.392 154.867 148.766 153.547 148.49 153.339 136.301 143.966C131.229 145.705 126.808 148.948 123.624 153.262 124.075 153.236 124.526 153.253 124.974 153.312 128.894 153.832 131.654 157.432 131.136 161.359L130.242 168.147 130.222 168.284 129.639 172.713 129.595 173.039 127.505 188.905C131.543 192.435 136.56 194.647 141.885 195.25 141.637 194.875 141.426 194.475 141.252 194.055 139.737 190.393 141.479 186.205 145.13 184.686L170.776 174.067C171.805 168.799 171.215 163.338 169.074 158.422Z" fill="#B3B3B3"/></g></svg>